<svg id="google-svgrepo-com" xmlns="http://www.w3.org/2000/svg" width="23.454" height="24" viewBox="0 0 23.454 24">
  <path id="Path_171" data-name="Path 171" d="M5.266,9.765A7.077,7.077,0,0,1,12,4.909a6.937,6.937,0,0,1,4.418,1.582L19.909,3A11.99,11.99,0,0,0,1.24,6.65Z" fill="#ea4335"/>
  <path id="Path_172" data-name="Path 172" d="M16.041,18.013A7.4,7.4,0,0,1,12,19.091a7.077,7.077,0,0,1-6.723-4.823l-4.04,3.067A11.965,11.965,0,0,0,12,24a11.43,11.43,0,0,0,7.834-3Z" fill="#34a853"/>
  <path id="Path_173" data-name="Path 173" d="M19.834,21a11.954,11.954,0,0,0,3.62-9,9.951,9.951,0,0,0-.273-2.182H12v4.636h6.436a5.408,5.408,0,0,1-2.4,3.558Z" fill="#4a90e2"/>
  <path id="Path_174" data-name="Path 174" d="M5.277,14.268a7.175,7.175,0,0,1-.011-4.5L1.24,6.65a12.14,12.14,0,0,0,0,10.685Z" fill="#fbbc05"/>
</svg>
