<svg id="Layer_1" data-name="Layer 1" xmlns="http://www.w3.org/2000/svg" viewBox="0 0 721.9 239.46"><defs><style>.cls-1,.cls-2{fill:#192b4a;}.cls-2{font-size:44.69px;font-family:Bahnschrift-BoldSemiCondensed, Bahnschrift;font-weight:700;}.cls-3{letter-spacing:-0.04em;}.cls-4{letter-spacing:-0.01em;}.cls-5{letter-spacing:-0.01em;}.cls-6{letter-spacing:-0.04em;}</style></defs><polygon class="cls-1" points="226.96 0 113.34 147.31 74.52 91.47 57.06 111.41 112.74 194.63 245.23 0 226.96 0"/><path class="cls-1" d="M193.49,102.62a75.48,75.48,0,0,1,3.68,27,84.91,84.91,0,1,1-82.46-87.29c15.89.45,31.76,7,44.25,15l18-21.83a112.52,112.52,0,1,0,34.73,39.67Z"/><path class="cls-1" d="M258,159.7V37.27h35.36V99.93q4.47,0,9.11-13.46,2.13-6.52,4.46-13.26h36q-4.24,11.34-8.27,22.68-4.43,10-12.3,14,9.81,3.84,13.65,9,5.57,7.5,5.57,24V159.7H305.65V134q0-4-2.79-5.48T293.34,127V159.7Z"/><path class="cls-1" d="M367.2,159.7V73.21h32.48v11q7.69-9.23,17.69-12.11,6-1.73,16.91-1.73V100.7q-14.61,0-21.33,3.26-10.38,5-10.38,18.85V159.7Z"/><path class="cls-1" d="M540.6,103.58l-43.82,23.83-9-15.46,17.83-9.7a9.89,9.89,0,0,0-7.31-2.9q-5.77,0-11.63,4.91t-5.87,9.31v.58q1.76,9.43,6.5,14.8c3.18,3.59,6.89,5.38,11.17,5.38q10.67,0,22.7-12.88l19.41,18.84a49.06,49.06,0,0,1-19.88,16.43,59.54,59.54,0,0,1-25.87,6.05q-18.53,0-31.07-10.56-14.29-11.93-14.29-33.44v-2.31q0-21.52,14.61-34.6a44,44,0,0,1,30-11.53q18.65,0,30.76,10Q534.64,88.39,540.6,103.58Z"/><path class="cls-1" d="M554.46,45.53h36.71V73.21h18.07v30.37H591.17v17.87c0,3,.58,5.07,1.73,6.35s3.53,1.93,7.11,1.93h9.23v30H589.82q-19.41,0-28.25-11-7.11-8.84-7.11-23.06Z"/><path class="cls-1" d="M680.57,125.68v34l-11.53.77q-19.6,0-32.1-12.3t-12.49-32.68q0-21.7,14-33.82,13.07-11.34,34.21-11.34,23.07,0,36.9,16,12.3,14.23,12.31,33.83V159.7H686.14V115.49q0-6.15-3.93-9.32a14.75,14.75,0,0,0-9.52-3.17,14.57,14.57,0,0,0-9,2.89,9.68,9.68,0,0,0-3.85,8.26q0,6.34,3.17,10.28a10.22,10.22,0,0,0,8.37,3.94A19.61,19.61,0,0,0,680.57,125.68Z"/><text class="cls-2" transform="translate(257.98 213.83)"><tspan class="cls-3">A</tspan><tspan class="cls-4" x="22.61" y="0">C</tspan><tspan x="45.33" y="0">H</tspan><tspan class="cls-5" x="69.99" y="0">CH</tspan><tspan x="116.93" y="0">A BHI, S</tspan><tspan class="cls-6" x="253.32" y="0">A</tspan><tspan class="cls-4" x="275.93" y="0">C</tspan><tspan x="298.65" y="0">H</tspan><tspan class="cls-4" x="323.31" y="0">CH</tspan><tspan x="370.25" y="0">A BHI</tspan></text></svg>